# MagicaVoxel @ Ephtracy

# material
mtllib troll.mtl
usemtl palette

# normals
vn -1 0 0
vn 1 0 0
vn 0 0 1
vn 0 0 -1
vn 0 -1 0
vn 0 1 0

# texcoords
vt 0.00195313 0.5
vt 0.00585938 0.5
vt 0.0605469 0.5
vt 0.0917969 0.5
vt 0.474609 0.5
vt 0.533203 0.5
vt 0.611328 0.5
vt 0.634766 0.5
vt 0.814453 0.5
vt 0.822266 0.5

# verts
v -4 8 0.5
v -4 8 -1.5
v -4 9 0.5
v -4 9 -1.5
v -4 16 0.5
v -4 16 -1.5
v -2 0 1.5
v -2 0 -2.5
v -2 8 1.5
v -2 8 0.5
v -2 8 -1.5
v -2 8 -2.5
v -2 9 0.5
v -2 9 -1.5
v -2 15 -1.5
v -2 15 -2.5
v -2 15 -3.5
v -2 16 1.5
v -2 16 0.5
v -2 16 -1.5
v -2 17 0.5
v -2 17 -1.5
v -2 18 0.5
v -2 18 -0.5
v -2 18 -1.5
v -2 18 -2.5
v -2 18 -3.5
v -2 19 0.5
v -2 19 -0.5
v -2 19 -1.5
v -2 19 -2.5
v -2 19 -3.5
v -2 20 1.5
v -2 20 -3.5
v -1 17 -3.5
v -1 17 -4.5
v -1 18 -2.5
v -1 18 -3.5
v -1 18 -4.5
v -1 19 -2.5
v -1 19 -3.5
v 1 15 -2.5
v 1 15 -3.5
v 1 16 -2.5
v 1 16 -3.5
v -1 15 -2.5
v -1 15 -3.5
v -1 16 -2.5
v -1 16 -3.5
v 1 17 -3.5
v 1 17 -4.5
v 1 18 -2.5
v 1 18 -3.5
v 1 18 -4.5
v 1 19 -2.5
v 1 19 -3.5
v 2 0 1.5
v 2 0 -2.5
v 2 8 1.5
v 2 8 0.5
v 2 8 -1.5
v 2 8 -2.5
v 2 9 0.5
v 2 9 -1.5
v 2 15 -1.5
v 2 15 -2.5
v 2 15 -3.5
v 2 16 1.5
v 2 16 0.5
v 2 16 -1.5
v 2 17 0.5
v 2 17 -1.5
v 2 18 0.5
v 2 18 -0.5
v 2 18 -1.5
v 2 18 -2.5
v 2 18 -3.5
v 2 19 0.5
v 2 19 -0.5
v 2 19 -1.5
v 2 19 -2.5
v 2 19 -3.5
v 2 20 1.5
v 2 20 -3.5
v 4 8 0.5
v 4 8 -1.5
v 4 9 0.5
v 4 9 -1.5
v 4 16 0.5
v 4 16 -1.5
v -2 0 1.5
v -2 8 1.5
v -2 16 1.5
v -2 20 1.5
v 2 0 1.5
v 2 8 1.5
v 2 16 1.5
v 2 20 1.5
v -4 8 0.5
v -4 9 0.5
v -4 16 0.5
v -2 8 0.5
v -2 9 0.5
v -2 16 0.5
v 2 8 0.5
v 2 9 0.5
v 2 16 0.5
v 4 8 0.5
v 4 9 0.5
v 4 16 0.5
v -4 8 -1.5
v -4 9 -1.5
v -4 16 -1.5
v -2 8 -1.5
v -2 9 -1.5
v -2 15 -1.5
v -2 16 -1.5
v 2 8 -1.5
v 2 9 -1.5
v 2 15 -1.5
v 2 16 -1.5
v 4 8 -1.5
v 4 9 -1.5
v 4 16 -1.5
v -2 0 -2.5
v -2 8 -2.5
v -2 15 -2.5
v -2 18 -2.5
v -2 19 -2.5
v -1 15 -2.5
v -1 16 -2.5
v -1 18 -2.5
v -1 19 -2.5
v 1 15 -2.5
v 1 16 -2.5
v 1 18 -2.5
v 1 19 -2.5
v 2 0 -2.5
v 2 8 -2.5
v 2 15 -2.5
v 2 18 -2.5
v 2 19 -2.5
v -2 15 -3.5
v -2 18 -3.5
v -2 19 -3.5
v -2 20 -3.5
v -1 15 -3.5
v -1 16 -3.5
v -1 17 -3.5
v -1 18 -3.5
v -1 19 -3.5
v 1 15 -3.5
v 1 16 -3.5
v 1 17 -3.5
v 1 18 -3.5
v 1 19 -3.5
v 2 15 -3.5
v 2 18 -3.5
v 2 19 -3.5
v 2 20 -3.5
v -1 17 -4.5
v -1 18 -4.5
v 1 17 -4.5
v 1 18 -4.5
v -2 0 1.5
v 2 0 1.5
v -2 0 -2.5
v 2 0 -2.5
v -4 8 0.5
v -2 8 0.5
v 2 8 0.5
v 4 8 0.5
v -4 8 -1.5
v -2 8 -1.5
v 2 8 -1.5
v 4 8 -1.5
v -2 15 -2.5
v -1 15 -2.5
v 1 15 -2.5
v 2 15 -2.5
v -2 15 -3.5
v -1 15 -3.5
v 1 15 -3.5
v 2 15 -3.5
v -1 16 -2.5
v 1 16 -2.5
v -1 16 -3.5
v 1 16 -3.5
v -1 17 -3.5
v 1 17 -3.5
v -1 17 -4.5
v 1 17 -4.5
v -2 19 -2.5
v -1 19 -2.5
v 1 19 -2.5
v 2 19 -2.5
v -2 19 -3.5
v -1 19 -3.5
v 1 19 -3.5
v 2 19 -3.5
v -4 16 0.5
v -2 16 0.5
v 2 16 0.5
v 4 16 0.5
v -4 16 -1.5
v -2 16 -1.5
v 2 16 -1.5
v 4 16 -1.5
v -2 18 -2.5
v -1 18 -2.5
v 1 18 -2.5
v 2 18 -2.5
v -2 18 -3.5
v -1 18 -3.5
v 1 18 -3.5
v 2 18 -3.5
v -1 18 -4.5
v 1 18 -4.5
v -2 20 1.5
v 2 20 1.5
v -2 20 -3.5
v 2 20 -3.5

# faces
f 3/9/1 2/9/1 1/9/1
f 4/9/1 2/9/1 3/9/1
f 5/4/1 4/4/1 3/4/1
f 6/4/1 4/4/1 5/4/1
f 9/7/1 8/7/1 7/7/1
f 10/7/1 8/7/1 9/7/1
f 11/7/1 8/7/1 10/7/1
f 12/7/1 8/7/1 11/7/1
f 13/4/1 10/4/1 9/4/1
f 14/4/1 12/4/1 11/4/1
f 15/4/1 12/4/1 14/4/1
f 16/4/1 12/4/1 15/4/1
f 18/4/1 13/4/1 9/4/1
f 19/4/1 13/4/1 18/4/1
f 20/9/1 16/9/1 15/9/1
f 21/1/1 19/1/1 18/1/1
f 21/9/1 20/9/1 19/9/1
f 22/9/1 16/9/1 20/9/1
f 22/9/1 20/9/1 21/9/1
f 23/1/1 21/1/1 18/1/1
f 23/1/1 22/1/1 21/1/1
f 24/1/1 22/1/1 23/1/1
f 25/9/1 16/9/1 22/9/1
f 25/1/1 22/1/1 24/1/1
f 26/2/1 17/2/1 16/2/1
f 26/9/1 16/9/1 25/9/1
f 27/2/1 17/2/1 26/2/1
f 28/10/1 24/10/1 23/10/1
f 28/1/1 23/1/1 18/1/1
f 29/1/1 25/1/1 24/1/1
f 29/10/1 24/10/1 28/10/1
f 30/3/1 26/3/1 25/3/1
f 30/1/1 25/1/1 29/1/1
f 31/3/1 26/3/1 30/3/1
f 33/1/1 28/1/1 18/1/1
f 33/1/1 32/1/1 31/1/1
f 33/1/1 31/1/1 30/1/1
f 33/1/1 30/1/1 29/1/1
f 33/1/1 29/1/1 28/1/1
f 34/1/1 32/1/1 33/1/1
f 38/6/1 36/6/1 35/6/1
f 39/6/1 36/6/1 38/6/1
f 40/9/1 38/9/1 37/9/1
f 41/9/1 38/9/1 40/9/1
f 44/2/1 43/2/1 42/2/1
f 45/2/1 43/2/1 44/2/1
f 46/2/2 47/2/2 48/2/2
f 48/2/2 47/2/2 49/2/2
f 50/6/2 51/6/2 53/6/2
f 53/6/2 51/6/2 54/6/2
f 52/9/2 53/9/2 55/9/2
f 55/9/2 53/9/2 56/9/2
f 57/7/2 58/7/2 59/7/2
f 59/7/2 58/7/2 60/7/2
f 60/7/2 58/7/2 61/7/2
f 61/7/2 58/7/2 62/7/2
f 59/4/2 60/4/2 63/4/2
f 61/4/2 62/4/2 64/4/2
f 64/4/2 62/4/2 65/4/2
f 65/4/2 62/4/2 66/4/2
f 59/4/2 63/4/2 68/4/2
f 68/4/2 63/4/2 69/4/2
f 65/9/2 66/9/2 70/9/2
f 68/1/2 69/1/2 71/1/2
f 69/9/2 70/9/2 71/9/2
f 70/9/2 66/9/2 72/9/2
f 71/9/2 70/9/2 72/9/2
f 68/1/2 71/1/2 73/1/2
f 71/1/2 72/1/2 73/1/2
f 73/1/2 72/1/2 74/1/2
f 72/9/2 66/9/2 75/9/2
f 74/1/2 72/1/2 75/1/2
f 66/2/2 67/2/2 76/2/2
f 75/9/2 66/9/2 76/9/2
f 76/2/2 67/2/2 77/2/2
f 73/10/2 74/10/2 78/10/2
f 68/1/2 73/1/2 78/1/2
f 74/1/2 75/1/2 79/1/2
f 78/10/2 74/10/2 79/10/2
f 75/3/2 76/3/2 80/3/2
f 79/1/2 75/1/2 80/1/2
f 80/3/2 76/3/2 81/3/2
f 68/1/2 78/1/2 83/1/2
f 81/1/2 82/1/2 83/1/2
f 80/1/2 81/1/2 83/1/2
f 79/1/2 80/1/2 83/1/2
f 78/1/2 79/1/2 83/1/2
f 83/1/2 82/1/2 84/1/2
f 85/9/2 86/9/2 87/9/2
f 87/9/2 86/9/2 88/9/2
f 87/4/2 88/4/2 89/4/2
f 89/4/2 88/4/2 90/4/2
f 95/7/3 92/7/3 91/7/3
f 96/4/3 93/4/3 92/4/3
f 96/7/3 92/7/3 95/7/3
f 97/1/3 94/1/3 93/1/3
f 97/4/3 93/4/3 96/4/3
f 98/1/3 94/1/3 97/1/3
f 102/9/3 100/9/3 99/9/3
f 103/4/3 101/4/3 100/4/3
f 103/9/3 100/9/3 102/9/3
f 104/4/3 101/4/3 103/4/3
f 108/9/3 106/9/3 105/9/3
f 109/4/3 107/4/3 106/4/3
f 109/9/3 106/9/3 108/9/3
f 110/4/3 107/4/3 109/4/3
f 111/9/4 112/9/4 114/9/4
f 112/4/4 113/4/4 115/4/4
f 114/9/4 112/9/4 115/9/4
f 115/4/4 113/4/4 116/4/4
f 116/4/4 113/4/4 117/4/4
f 118/9/4 119/9/4 122/9/4
f 120/4/4 121/4/4 123/4/4
f 122/9/4 119/9/4 123/9/4
f 119/4/4 120/4/4 123/4/4
f 123/4/4 121/4/4 124/4/4
f 126/4/4 127/4/4 130/4/4
f 128/3/4 129/3/4 132/3/4
f 132/3/4 129/3/4 133/3/4
f 130/4/4 131/4/4 134/4/4
f 126/4/4 130/4/4 134/4/4
f 134/4/4 131/4/4 135/4/4
f 125/7/4 126/7/4 138/7/4
f 126/4/4 134/4/4 139/4/4
f 138/7/4 126/7/4 139/7/4
f 139/4/4 134/4/4 140/4/4
f 136/3/4 137/3/4 141/3/4
f 141/3/4 137/3/4 142/3/4
f 143/2/4 144/2/4 147/2/4
f 147/2/4 144/2/4 148/2/4
f 148/2/4 144/2/4 149/2/4
f 149/2/4 144/2/4 150/2/4
f 145/1/4 146/1/4 151/1/4
f 148/10/4 149/10/4 153/10/4
f 153/10/4 149/10/4 154/10/4
f 150/9/4 151/9/4 155/9/4
f 151/1/4 146/1/4 156/1/4
f 155/9/4 151/9/4 156/9/4
f 153/2/4 154/2/4 157/2/4
f 154/2/4 155/2/4 157/2/4
f 152/2/4 153/2/4 157/2/4
f 157/2/4 155/2/4 158/2/4
f 156/1/4 146/1/4 159/1/4
f 159/1/4 146/1/4 160/1/4
f 161/6/4 162/6/4 163/6/4
f 163/6/4 162/6/4 164/6/4
f 167/7/5 166/7/5 165/7/5
f 168/7/5 166/7/5 167/7/5
f 173/9/5 170/9/5 169/9/5
f 174/9/5 170/9/5 173/9/5
f 175/9/5 172/9/5 171/9/5
f 176/9/5 172/9/5 175/9/5
f 181/2/5 178/2/5 177/2/5
f 182/2/5 178/2/5 181/2/5
f 183/2/5 180/2/5 179/2/5
f 184/2/5 180/2/5 183/2/5
f 187/10/5 186/10/5 185/10/5
f 188/10/5 186/10/5 187/10/5
f 191/6/5 190/6/5 189/6/5
f 192/6/5 190/6/5 191/6/5
f 197/1/5 194/1/5 193/1/5
f 198/1/5 194/1/5 197/1/5
f 199/1/5 196/1/5 195/1/5
f 200/1/5 196/1/5 199/1/5
f 201/4/6 202/4/6 205/4/6
f 205/4/6 202/4/6 206/4/6
f 203/4/6 204/4/6 207/4/6
f 207/4/6 204/4/6 208/4/6
f 209/2/6 210/2/6 213/2/6
f 213/2/6 210/2/6 214/2/6
f 211/2/6 212/2/6 215/2/6
f 215/2/6 212/2/6 216/2/6
f 214/6/6 215/6/6 217/6/6
f 217/6/6 215/6/6 218/6/6
f 219/1/6 220/1/6 221/1/6
f 221/1/6 220/1/6 222/1/6
